<?xml version="1.0" standalone="no"?>
<!DOCTYPE svg PUBLIC "-//W3C//DTD SVG 20010904//EN"
 "http://www.w3.org/TR/2001/REC-SVG-20010904/DTD/svg10.dtd">
<svg version="1.0" xmlns="http://www.w3.org/2000/svg"
 width="72" height="72" viewBox="0 0 349.000000 126.000000"
 preserveAspectRatio="xMidYMid meet">

<g transform="translate(0.000000,126.000000) scale(0.100000,-0.100000)"
fill="#ffffff" stroke="none">
<path d="M1517 1254 c-4 -4 -7 -97 -7 -207 l0 -200 -82 -114 c-135 -188 -168
-213 -275 -213 -149 1 -248 133 -212 283 17 72 85 139 158 157 129 31 247 -46
276 -178 l7 -34 25 37 25 36 -27 55 c-97 197 -404 197 -500 -1 -37 -74 -39
-176 -5 -253 70 -163 295 -215 433 -101 20 16 93 108 162 204 135 187 165 219
223 235 155 43 292 -58 292 -215 0 -64 -15 -106 -55 -153 -71 -85 -198 -100
-294 -36 -42 27 -91 107 -91 148 0 33 -10 33 -33 0 -40 -55 21 -162 119 -210
145 -71 316 -18 386 121 29 56 35 158 14 222 -52 156 -239 233 -390 159 -31
-15 -64 -38 -75 -52 -10 -13 -21 -24 -25 -24 -3 0 -7 75 -8 167 -3 142 -5 168
-18 171 -9 1 -19 0 -23 -4z"/>
<path d="M1032 1218 c-28 -28 -7 -78 33 -78 12 0 26 5 33 12 7 7 12 21 12 33
0 12 -5 26 -12 33 -7 7 -21 12 -33 12 -12 0 -26 -5 -33 -12z"/>
<path d="M1212 1218 c-28 -28 -7 -78 33 -78 12 0 26 5 33 12 7 7 12 21 12 33
0 12 -5 26 -12 33 -7 7 -21 12 -33 12 -12 0 -26 -5 -33 -12z"/>
<path d="M2169 1209 c-18 -34 3 -69 41 -69 38 0 59 35 41 69 -16 29 -66 29
-82 0z"/>
<path d="M165 1018 c-16 -6 -44 -21 -62 -34 l-32 -24 -3 27 c-2 22 -8 28 -28
28 l-25 0 0 -270 0 -270 28 -3 27 -3 0 183 c0 171 2 187 23 228 53 106 196
113 259 13 22 -36 23 -49 26 -223 2 -106 8 -190 14 -197 7 -9 16 -10 28 -3 17
9 19 29 22 204 3 212 6 221 70 269 36 27 119 28 155 1 66 -49 68 -57 71 -270
3 -177 5 -195 22 -204 14 -7 23 -6 35 7 15 14 16 39 13 197 -3 157 -6 187 -24
226 -63 137 -232 172 -335 69 l-37 -37 -41 38 c-58 55 -134 73 -206 48z"/>
<path d="M3075 1021 c-59 -15 -96 -41 -116 -84 -24 -53 -24 -84 0 -123 28 -46
78 -72 182 -94 101 -22 134 -38 151 -76 9 -19 8 -32 -5 -60 -24 -49 -71 -67
-163 -62 -63 3 -79 8 -119 36 -51 36 -70 40 -79 15 -10 -25 39 -70 101 -93
209 -78 417 82 292 225 -32 36 -130 75 -187 75 -14 0 -45 9 -68 20 -143 70 -6
217 144 154 20 -8 49 -27 64 -41 18 -18 32 -23 47 -18 30 9 26 32 -12 70 -52
52 -151 75 -232 56z"/>
<path d="M2185 1008 c-3 -7 -4 -130 -3 -273 l3 -260 25 0 25 0 0 270 0 270
-23 3 c-12 2 -24 -3 -27 -10z"/>
<path d="M2357 1014 c-12 -12 -8 -353 4 -395 17 -55 65 -108 123 -135 92 -43
218 -27 283 35 30 28 33 27 33 -13 0 -38 19 -51 44 -33 14 11 16 43 14 277
l-3 265 -25 0 -25 0 -5 -185 c-5 -195 -11 -221 -58 -263 -67 -61 -208 -60
-275 1 -46 41 -52 69 -57 262 -5 177 -6 185 -25 188 -12 2 -24 0 -28 -4z"/>
<path d="M95 320 c-100 -41 -92 -184 12 -218 35 -11 46 -11 79 4 22 9 34 18
27 21 -7 2 -21 0 -32 -6 -37 -20 -71 -13 -107 23 -37 37 -43 70 -20 114 26 49
81 63 151 38 17 -7 17 -5 -4 13 -24 22 -70 27 -106 11z"/>
<path d="M438 312 c-31 -18 -58 -67 -58 -104 0 -30 33 -84 61 -99 32 -17 92
-16 124 1 51 28 73 120 39 168 -35 50 -115 67 -166 34z m131 -28 c26 -22 31
-33 31 -69 0 -59 -30 -94 -87 -102 -39 -5 -46 -2 -78 30 -39 39 -44 70 -20
117 19 37 41 49 87 50 25 0 46 -8 67 -26z"/>
<path d="M800 237 c0 -84 2 -96 23 -114 54 -50 138 -32 157 34 13 43 10 169
-4 165 -5 -1 -8 -38 -7 -82 2 -73 0 -82 -23 -105 -31 -31 -78 -33 -106 -5 -17
17 -20 33 -20 110 0 53 -4 90 -10 90 -6 0 -10 -38 -10 -93z"/>
<path d="M1178 324 c-12 -11 -10 -224 1 -224 6 0 11 19 13 43 3 37 6 42 30 45
22 3 31 -4 53 -42 15 -25 31 -46 36 -46 13 0 11 7 -15 49 l-24 38 20 21 c25
25 28 76 5 99 -17 17 -107 30 -119 17z m111 -46 c14 -24 14 -28 -3 -47 -13
-14 -31 -21 -58 -21 l-38 0 0 51 0 50 42 -3 c34 -2 45 -8 57 -30z"/>
<path d="M1500 310 c-42 -42 -7 -100 59 -100 22 0 61 -32 61 -50 0 -19 -40
-50 -64 -50 -13 0 -35 10 -50 21 -29 23 -47 19 -27 -5 21 -25 74 -38 107 -26
34 13 44 26 44 61 0 33 -21 51 -73 64 -47 12 -67 36 -51 63 15 24 71 28 95 6
11 -9 22 -14 27 -10 4 4 -4 16 -17 27 -31 25 -85 25 -111 -1z"/>
<path d="M1810 215 l0 -115 83 2 82 2 -70 5 -70 6 -3 43 -3 42 50 0 c27 0 53
5 56 10 4 6 -15 10 -49 10 l-56 0 0 45 0 45 70 0 c40 0 70 4 70 10 0 6 -33 10
-80 10 l-80 0 0 -115z"/>
<path d="M2123 313 c37 -133 64 -212 71 -210 10 3 15 15 41 110 17 60 28 66
39 20 18 -75 37 -133 45 -133 8 0 71 194 71 220 0 32 -19 -9 -40 -85 -12 -44
-25 -83 -29 -87 -4 -5 -18 33 -31 82 -13 50 -29 89 -34 87 -5 -2 -21 -43 -34
-91 -15 -50 -28 -82 -32 -74 -4 7 -17 50 -30 96 -12 45 -27 82 -33 82 -5 0 -7
-8 -4 -17z"/>
<path d="M2557 220 c-51 -119 -51 -120 -37 -120 5 0 12 11 16 25 6 23 10 25
70 25 59 0 65 -2 76 -25 13 -28 34 -35 24 -7 -23 60 -92 212 -97 212 -3 0 -27
-49 -52 -110z m78 18 c9 -24 19 -49 22 -55 4 -10 -9 -13 -46 -13 -28 0 -51 3
-51 6 0 14 43 104 50 104 4 0 16 -19 25 -42z"/>
<path d="M2870 215 c0 -70 4 -115 10 -115 6 0 10 20 10 45 0 42 2 45 28 45 21
0 33 -10 55 -45 16 -25 33 -45 38 -45 14 0 11 7 -18 51 l-26 40 21 15 c22 15
30 66 14 90 -13 20 -50 34 -91 34 l-41 0 0 -115z m110 75 c24 -24 24 -29 4
-58 -11 -16 -25 -22 -55 -22 l-39 0 0 50 0 50 35 0 c22 0 43 -8 55 -20z"/>
<path d="M3180 215 l0 -115 88 2 87 2 -75 5 -75 6 -3 43 -3 42 50 0 c27 0 53
5 56 10 4 6 -15 10 -49 10 l-56 0 0 45 0 45 76 0 c47 0 73 4 69 10 -3 6 -42
10 -86 10 l-79 0 0 -115z"/>
</g>
</svg>
